<?xml version="1.0" encoding="UTF-8" standalone="no"?>
<svg
   xmlns:vectornator="http://vectornator.io"
   xmlns:dc="http://purl.org/dc/elements/1.1/"
   xmlns:cc="http://creativecommons.org/ns#"
   xmlns:rdf="http://www.w3.org/1999/02/22-rdf-syntax-ns#"
   xmlns:svg="http://www.w3.org/2000/svg"
   xmlns="http://www.w3.org/2000/svg"
   xmlns:sodipodi="http://sodipodi.sourceforge.net/DTD/sodipodi-0.dtd"
   xmlns:inkscape="http://www.inkscape.org/namespaces/inkscape"
   inkscape:version="1.0 (4035a4fb49, 2020-05-01)"
   sodipodi:docname="Text.svg"
   id="svg10"
   version="1.1"
   xml:space="preserve"
   viewBox="0 0 16 16"
   style="fill-rule:nonzero;clip-rule:evenodd;stroke-linecap:round;stroke-linejoin:round"
   stroke-miterlimit="10"><metadata
     id="metadata16"><rdf:RDF><cc:Work
         rdf:about=""><dc:format>image/svg+xml</dc:format><dc:type
           rdf:resource="http://purl.org/dc/dcmitype/StillImage" /><dc:title></dc:title></cc:Work></rdf:RDF></metadata><defs
     id="defs14" /><sodipodi:namedview
     inkscape:current-layer="svg10"
     inkscape:window-maximized="0"
     inkscape:window-y="0"
     inkscape:window-x="0"
     inkscape:cy="9.6349206"
     inkscape:cx="7.2222222"
     inkscape:zoom="63"
     showgrid="false"
     id="namedview12"
     inkscape:window-height="1740"
     inkscape:window-width="2864"
     inkscape:pageshadow="2"
     inkscape:pageopacity="0"
     guidetolerance="10"
     gridtolerance="10"
     objecttolerance="10"
     borderopacity="1"
     bordercolor="#666666"
     pagecolor="#ffffff" /><g
     style="fill:#fc7f7f;fill-opacity:0.99607843"
     id="g8"
     vectornator:layerName="Untitled"
     fill-rule="evenodd"
     fill="#ffca5f"><path
       style="fill:#fc7f7f;fill-opacity:0.99607843"
       id="path2"
       d="M1 1h14v2H1V1Z" /><path
       style="fill:#fc7f7f;fill-opacity:0.99607843"
       id="path4"
       d="M7 1h2v14H7V1Z" /><path
       style="fill:#fc7f7f;fill-opacity:0.99607843"
       id="path6"
       d="M5 14h6v1H5v-1ZM2 1v4H1V1h1Zm13 0v4h-1V1h1ZM2 3v2a2 2 0 0 1 2-2H2Zm10 0a2 2 0 0 1 2 2V3h-2ZM5 14a2 2 0 0 0 2-2v2H5Zm6 0a2 2 0 0 1-2-2v2h2Z" /></g></svg>
